<?xml version="1.0" encoding="UTF-8" standalone="no"?>
<svg
   xmlns:dc="http://purl.org/dc/elements/1.1/"
   xmlns:cc="http://creativecommons.org/ns#"
   xmlns:rdf="http://www.w3.org/1999/02/22-rdf-syntax-ns#"
   xmlns:svg="http://www.w3.org/2000/svg"
   xmlns="http://www.w3.org/2000/svg"
   height="667.56116"
   width="282.80609"
   id="svg4856"
   y="0px"
   x="0px"
   viewBox="0 0 282.8061 667.56119"
   style="clip-rule:evenodd;fill-rule:evenodd;image-rendering:optimizeQuality;shape-rendering:geometricPrecision;text-rendering:geometricPrecision"
   version="1.1"
   xml:space="preserve"><metadata
     id="metadata4860"><rdf:RDF><cc:Work
         rdf:about=""><dc:format>image/svg+xml</dc:format><dc:type
           rdf:resource="http://purl.org/dc/dcmitype/StillImage" /><dc:title></dc:title></cc:Work></rdf:RDF></metadata><defs
     id="defs4846"><style
       id="style4844"
       type="text/css">
   
    .fil0 {fill:black}
   
  </style></defs><g
     transform="translate(-281.9339,-89.55)"
     id="g4850"><path
       style="fill:#8888aa"
       id="path4848"
       d="m 299.48,391.76 c 105.94,-150.9 159.82,-136.05 184.1,-118.85 24.79,17.56 28.93,51.66 23.76,69.23 -5.16,17.56 -64.04,259.34 -77.47,294.46 -13.43,35.13 14.47,37.97 35.39,19.37 7.55,-6.71 136.2,-158.92 70.52,-47.26 -9.22,15.67 -70.9,121.64 -122.62,140.36 -31.3,11.32 -70.76,14.22 -91.27,-15.14 -42.31,-60.6 78.43,-293.62 72.34,-363.38 -5.02,-57.63 -164.29,120.27 -94.75,21.21 z M 508.43,89.55 c 31.1,0 56.31,37.24 56.31,83.17 0,45.94 -25.21,83.17 -56.31,83.17 -31.1,0 -56.31,-37.23 -56.31,-83.17 0,-45.93 25.21,-83.17 56.31,-83.17 z"
       class="fil0" /></g></svg>
